<svg width="1922" height="373" viewBox="0 0 1922 373" fill="none" xmlns="http://www.w3.org/2000/svg">
<rect x="2" y="72" width="1920" height="301" fill="#78AE3E"/>
<path d="M976.5 271.5C941.5 232.5 1037 167 1037 167L1791.5 172L1812.5 196.5C1812.5 196.5 1872 187.5 1826 264C1780 340.5 1697 295 1649 288.5C1601 282 1646 273 1582.5 298C1519 323 1475 298 1409.5 323C1361.46 341.335 1266.9 297.01 1233.9 275.029C1220.93 286.151 1169.68 300.5 1112 300.5C1030 300.5 1011.5 310.5 976.5 271.5Z" fill="#101010" fill-opacity="0.3"/>
<path d="M2 206.5V71.5H1919.5V206.5C1919.5 206.5 1863 131 1866 246C1869 361 1526 206.5 1489.5 142C1453 77.5 997.5 142 991.5 226C985.5 310 395.5 246 395.5 164.5C395.5 83 2 206.5 2 206.5Z" fill="#BACC3A" stroke="#BACC3A"/>
<path d="M0 81.4987C0 81.4987 145 48.9987 258.5 68.4987C294.469 74.6785 332.347 78.247 367.311 80.2387L508.977 79.7527C566.439 57.6884 623.658 48.9987 687.5 48.9987C753 48.9987 835 92.9987 877 68.4987C919 43.9987 1024 48.9987 1032.5 68.4987C1041 87.9987 1484 -25.5014 1521 13.4986C1528.16 21.0469 1546.07 25.7857 1568.64 28.7555C1607.58 5.59451 1722.34 -18.8768 1815.5 24.9987C1979 101.998 1894.5 74.9998 1894.5 74.9998L508.977 79.7527C507.485 80.3257 505.993 80.9077 504.5 81.4987C504.5 81.4987 442.674 84.5317 367.311 80.2387L0 81.4987Z" fill="#BACC3A"/>
</svg>
