<svg width="277" height="45" viewBox="0 0 277 45" fill="none" xmlns="http://www.w3.org/2000/svg">
<path d="M24.2628 7.53219C24.2628 3.37227 27.6351 0 31.795 0H188.303C192.463 0 195.835 3.37227 195.835 7.53219C195.835 11.6921 199.208 15.0644 203.367 15.0644H223.35C227.456 15.0644 230.785 18.3934 230.785 22.5C230.785 26.6066 234.114 29.9356 238.221 29.9356H254.159C258.319 29.9356 261.691 33.3079 261.691 37.4678C261.691 41.6277 258.319 45 254.159 45H97.6511C93.4912 45 90.1189 41.6277 90.1189 37.4678C90.1189 33.3079 86.7466 29.9356 82.5867 29.9356H66.6483C62.5418 29.9356 59.2127 26.6066 59.2127 22.5C59.2127 18.3934 55.8837 15.0644 51.7771 15.0644H31.795C27.6351 15.0644 24.2628 11.6921 24.2628 7.53219Z" fill="white" fill-opacity="0.6"/>
<path d="M246.094 7.53219C246.094 3.37227 249.466 0 253.626 0H269.468C273.628 0 277 3.37227 277 7.53219C277 11.6921 273.628 15.0644 269.468 15.0644H253.626C249.466 15.0644 246.094 11.6921 246.094 7.53219Z" fill="white" fill-opacity="0.6"/>
<path d="M54.3024 37.4678C54.3024 33.3079 50.9301 29.9356 46.7702 29.9356H7.53219C3.37228 29.9356 0 33.3079 0 37.4678C0 41.6277 3.37228 45 7.5322 45H46.7702C50.9301 45 54.3024 41.6277 54.3024 37.4678Z" fill="white" fill-opacity="0.6"/>
</svg>
