<svg width="1925" height="385" viewBox="0 0 1925 385" fill="none" xmlns="http://www.w3.org/2000/svg">
<line x1="2.26179" y1="239.101" x2="1922.26" y2="15.1011" stroke="#31302F" stroke-width="30"/>
<path d="M59.8846 223.761L53.329 224.526L53.1553 223.036L73.3287 220.684L73.5024 222.174L66.9468 222.938L69.2293 242.516L62.1671 243.339L59.8846 223.761ZM85.439 238.602C85.7837 238.622 86.1394 238.651 86.5063 238.689C86.8754 238.747 87.2545 238.803 87.6436 238.858C88.0127 238.916 88.3807 238.964 88.7476 239.002C89.1144 239.039 89.4701 239.068 89.8148 239.089L89.4813 236.228L96.5435 235.405L96.9951 239.278C95.4393 239.923 93.9363 240.33 92.4861 240.499C91.0359 240.668 89.4796 240.618 87.8173 240.348C86.1549 240.079 84.5887 240.03 83.1186 240.201C81.6685 240.371 80.1655 240.777 78.6096 241.422L77.022 227.804L75.532 227.978L75.3583 226.488L95.2337 224.171L96.3003 233.319L84.977 234.639L85.439 238.602ZM84.8033 233.149L89.0644 232.652L88.3453 226.484L84.0841 226.981L84.8033 233.149ZM99.1096 223.719L117.495 221.575L119.135 235.64C119.856 235.435 120.544 235.204 121.198 234.946L121.372 236.436C119.816 237.081 118.134 237.508 116.327 237.719C114.519 237.93 112.784 237.901 111.122 237.631C109.459 237.362 107.724 237.333 105.916 237.544C104.109 237.754 102.427 238.182 100.871 238.826L99.8044 229.678L111.128 228.358L110.607 223.889L106.345 224.385L106.623 226.769L99.5612 227.593L99.1096 223.719ZM110.948 236.141C111.111 236.163 111.285 236.183 111.468 236.202C111.674 236.238 111.868 236.266 112.052 236.285L111.301 229.848L107.04 230.345L107.69 235.917C108.772 235.872 109.858 235.946 110.948 236.141ZM139.191 220.556L137.195 220.789L138.782 234.406L132.435 235.146L130.848 221.529L128.821 221.765L130.409 235.383L124.062 236.123L122.474 222.505L120.984 222.679L120.811 221.189L145.394 218.323L147.156 233.43L140.779 234.174L139.191 220.556ZM151.25 226.097L158.312 225.273L159.101 232.038L152.039 232.861L151.25 226.097ZM189.192 207.176L189.852 212.837L182.79 213.661L182.304 209.489L176.583 210.156L177.517 218.172L190.003 216.716L191.351 228.278C189.795 228.922 188.163 229.344 186.454 229.543C184.766 229.74 183.09 229.704 181.428 229.434C179.765 229.165 178.08 229.13 176.372 229.329C174.683 229.526 173.061 229.947 171.505 230.591L170.81 224.632L177.872 223.808L178.327 227.712C178.811 227.716 179.296 227.73 179.782 227.754C180.27 227.797 180.761 227.861 181.254 227.945C182.158 228.101 183.134 228.178 184.181 228.177L183.114 219.029L170.629 220.485L169.52 210.979L168.031 211.153L167.857 209.663L189.192 207.176ZM205.344 226.646C203.681 226.377 201.966 226.345 200.198 226.551C198.45 226.755 196.798 227.179 195.242 227.824L192.96 208.246L191.47 208.42L191.296 206.93L212.959 204.405L215.416 225.472C213.86 226.116 212.208 226.541 210.46 226.744C208.711 226.948 207.006 226.915 205.344 226.646ZM205.17 225.156C205.663 225.24 206.164 225.302 206.672 225.344C207.2 225.383 207.725 225.392 208.246 225.372L206.071 206.718L200.022 207.423L202.065 224.944C203.169 224.916 204.204 224.987 205.17 225.156ZM234.132 223.29C232.894 223.897 231.659 224.273 230.427 224.416C229.216 224.558 227.937 224.475 226.593 224.169C223.963 223.549 221.441 223.843 219.024 225.051L218.131 217.393L225.134 216.577L225.829 222.536C225.933 222.564 226.026 222.584 226.107 222.594C226.211 222.623 226.315 222.651 226.419 222.679L226.976 222.795L224.847 204.529L220.615 205.022L220.442 203.532L234.059 201.945L234.233 203.434L231.849 203.712L234.132 223.29Z" fill="white"/>
<path d="M260.885 199.761L254.329 200.526L254.155 199.036L274.329 196.684L274.502 198.174L267.947 198.938L270.229 218.516L263.167 219.339L260.885 199.761ZM286.439 214.602C286.784 214.622 287.139 214.651 287.506 214.689C287.875 214.747 288.255 214.803 288.644 214.858C289.013 214.916 289.381 214.964 289.748 215.002C290.114 215.039 290.47 215.068 290.815 215.089L290.481 212.228L297.543 211.405L297.995 215.278C296.439 215.923 294.936 216.33 293.486 216.499C292.036 216.668 290.48 216.618 288.817 216.348C287.155 216.079 285.589 216.03 284.119 216.201C282.668 216.371 281.165 216.777 279.61 217.422L278.022 203.804L276.532 203.978L276.358 202.488L296.234 200.171L297.3 209.319L285.977 210.639L286.439 214.602ZM285.803 209.149L290.064 208.652L289.345 202.484L285.084 202.981L285.803 209.149ZM300.11 199.719L318.495 197.575L320.135 211.64C320.856 211.435 321.544 211.204 322.198 210.946L322.372 212.436C320.816 213.081 319.134 213.508 317.327 213.719C315.519 213.93 313.784 213.901 312.122 213.631C310.459 213.362 308.724 213.333 306.916 213.544C305.109 213.754 303.427 214.182 301.871 214.826L300.804 205.678L312.128 204.358L311.607 199.889L307.345 200.385L307.623 202.769L300.561 203.593L300.11 199.719ZM311.948 212.141C312.111 212.163 312.285 212.183 312.468 212.202C312.674 212.238 312.868 212.266 313.052 212.285L312.301 205.848L308.04 206.345L308.69 211.917C309.772 211.872 310.858 211.946 311.948 212.141ZM340.191 196.556L338.195 196.789L339.782 210.406L333.435 211.146L331.848 197.529L329.821 197.765L331.409 211.383L325.062 212.123L323.474 198.505L321.984 198.679L321.811 197.189L346.394 194.323L348.156 209.43L341.779 210.174L340.191 196.556ZM352.25 202.097L359.312 201.273L360.101 208.038L353.039 208.861L352.25 202.097ZM390.192 183.176L390.852 188.837L383.79 189.661L383.304 185.489L377.583 186.156L378.517 194.172L391.003 192.716L392.351 204.278C390.795 204.922 389.163 205.344 387.454 205.543C385.766 205.74 384.09 205.704 382.428 205.434C380.765 205.165 379.08 205.13 377.372 205.329C375.683 205.526 374.061 205.947 372.505 206.591L371.81 200.632L378.872 199.808L379.327 203.712C379.811 203.716 380.296 203.73 380.782 203.754C381.27 203.797 381.761 203.861 382.254 203.945C383.158 204.101 384.134 204.178 385.181 204.177L384.114 195.029L371.629 196.485L370.52 186.979L369.031 187.153L368.857 185.663L390.192 183.176ZM406.344 202.646C404.681 202.377 402.966 202.345 401.198 202.551C399.45 202.755 397.798 203.179 396.242 203.824L393.96 184.246L392.47 184.42L392.296 182.93L413.959 180.405L416.416 201.472C414.86 202.116 413.208 202.541 411.46 202.744C409.711 202.948 408.006 202.915 406.344 202.646ZM406.17 201.156C406.663 201.24 407.164 201.302 407.672 201.344C408.2 201.383 408.725 201.392 409.246 201.372L407.071 182.718L401.022 183.423L403.065 200.944C404.169 200.916 405.204 200.987 406.17 201.156ZM435.132 199.29C433.894 199.897 432.659 200.273 431.427 200.416C430.216 200.558 428.937 200.475 427.593 200.169C424.963 199.549 422.441 199.843 420.024 201.051L419.131 193.393L426.134 192.577L426.829 198.536C426.933 198.564 427.026 198.584 427.107 198.594C427.211 198.623 427.315 198.651 427.419 198.679L427.976 198.795L425.847 180.529L421.615 181.022L421.442 179.532L435.059 177.945L435.233 179.434L432.849 179.712L435.132 199.29Z" fill="white"/>
<path d="M1924 32V384H4V256.819L1924 32Z" fill="#31302F" stroke="black"/>
</svg>
