<svg width="94" height="87" viewBox="0 0 94 87" fill="none" xmlns="http://www.w3.org/2000/svg">
<path d="M69.01 20.27V33.57H52.42V23.77H38.91V64.93C40.0767 65.07 41.22 65.2333 42.34 65.42C43.46 65.6533 44.58 65.9333 45.7 66.26C47.7533 66.8667 49.9933 67.31 52.42 67.59V55.97H69.01V69.76C65.23 70.8333 61.3333 71.37 57.32 71.37C53.3533 71.37 49.48 70.8333 45.7 69.76C41.92 68.6867 38.0233 68.15 34.01 68.15C29.9967 68.15 26.1 68.6867 22.32 69.76V23.77H18.82V20.27H69.01Z" fill="white"/>
<path d="M91.5 43.5C91.5 65.965 71.7624 84.5 47 84.5C22.2376 84.5 2.5 65.965 2.5 43.5C2.5 21.035 22.2376 2.5 47 2.5C71.7624 2.5 91.5 21.035 91.5 43.5Z" stroke="white" stroke-width="5"/>
</svg>
