<svg width="205" height="48" viewBox="0 0 205 48" fill="none" xmlns="http://www.w3.org/2000/svg">
<g filter="url(#filter0_d_76_29)">
<path d="M32.8 5.85V8.35H24.35L33.05 38.9H20.9L14.1 15.1L7.35 38.9H4.3L13 8.35H4.55V5.85H32.8ZM36.15 20.95H30.2V18.45H36.15V1.9H48V39.4H36.15V20.95ZM27.3 0.799999V3.3H10.05V0.799999H27.3ZM97.5766 10C97.5766 11.2 97.2932 12.3 96.7266 13.3C96.1932 14.2667 95.1932 15.1 93.7266 15.8C92.2599 16.5 90.2099 17.0333 87.5766 17.4C84.9766 17.7667 81.6099 17.95 77.4766 17.95C73.3432 17.95 69.9599 17.7667 67.3266 17.4C64.7266 17.0333 62.6932 16.5 61.2266 15.8C59.7599 15.1 58.7432 14.2667 58.1766 13.3C57.6432 12.3 57.3766 11.2 57.3766 10C57.3766 8.8 57.6432 7.71667 58.1766 6.75C58.7432 5.75 59.7599 4.9 61.2266 4.2C62.6932 3.5 64.7266 2.96667 67.3266 2.6C69.9599 2.23333 73.3432 2.05 77.4766 2.05C81.6099 2.05 84.9766 2.23333 87.5766 2.6C90.2099 2.96667 92.2599 3.5 93.7266 4.2C95.1932 4.9 96.1932 5.75 96.7266 6.75C97.2932 7.71667 97.5766 8.8 97.5766 10ZM58.1266 26H96.8266V38.4C95.0599 38.8333 93.3766 39.15 91.7766 39.35C90.2099 39.5833 88.6599 39.7 87.1266 39.7C85.6266 39.7 84.0766 39.5833 82.4766 39.35C80.9099 39.15 79.2432 38.8333 77.4766 38.4C75.7099 37.9667 74.0266 37.6333 72.4266 37.4C70.8599 37.2 69.3099 37.1 67.7766 37.1C66.2766 37.1 64.7266 37.2 63.1266 37.4C61.5599 37.6333 59.8932 37.9667 58.1266 38.4V26ZM69.1266 10C69.1266 10.7667 69.2599 11.4833 69.5266 12.15C69.7932 12.8167 70.2432 13.4 70.8766 13.9C71.5432 14.3667 72.4099 14.75 73.4766 15.05C74.5432 15.3167 75.8766 15.45 77.4766 15.45C79.0766 15.45 80.4099 15.3167 81.4766 15.05C82.5432 14.75 83.3932 14.3667 84.0266 13.9C84.6932 13.4 85.1599 12.8167 85.4266 12.15C85.6932 11.4833 85.8266 10.7667 85.8266 10C85.8266 9.23333 85.6932 8.51667 85.4266 7.85C85.1599 7.18333 84.6932 6.61667 84.0266 6.15C83.3932 5.65 82.5432 5.26667 81.4766 5C80.4099 4.7 79.0766 4.55 77.4766 4.55C75.8766 4.55 74.5432 4.7 73.4766 5C72.4099 5.26667 71.5432 5.65 70.8766 6.15C70.2432 6.61667 69.7932 7.18333 69.5266 7.85C69.2599 8.51667 69.1266 9.23333 69.1266 10ZM100.827 20.5V23H54.1266V20.5H100.827ZM77.4766 35.9C78.8432 36.2333 80.1266 36.5 81.3266 36.7C82.5599 36.9 83.7766 37.0333 84.9766 37.1V28.5H69.9766V34.7C71.1432 34.7667 72.3266 34.9 73.5266 35.1C74.7599 35.3 76.0766 35.5667 77.4766 35.9ZM134.753 5.85V8.35H126.303L135.003 38.9H122.853L116.053 15.1L109.303 38.9H106.253L114.953 8.35H106.503V5.85H134.753ZM138.103 20.95H132.153V18.45H138.103V1.9H149.953V39.4H138.103V20.95ZM129.253 0.799999V3.3H112.003V0.799999H129.253ZM184.93 3.05V8.2H189.08V1.9H200.93V22.9H189.08V10.7H184.93V13.7H170.08V19.4H185.43V21.9H158.23V11.2H173.08V5.55H158.23V3.05H184.93ZM200.93 38.4C197.363 39.2667 193.796 39.7 190.23 39.7C186.696 39.7 183.146 39.2667 179.58 38.4C176.013 37.5333 172.446 37.1 168.88 37.1C165.346 37.1 161.796 37.5333 158.23 38.4V25.05H200.93V38.4ZM179.58 35.9C181.18 36.2667 182.78 36.55 184.38 36.75C185.98 36.9833 187.58 37.1167 189.18 37.15V27.55H169.98V34.65C173.246 34.7167 176.446 35.1333 179.58 35.9Z" fill="white"/>
</g>
<defs>
<filter id="filter0_d_76_29" x="0.299988" y="0.800049" width="204.63" height="46.8999" filterUnits="userSpaceOnUse" color-interpolation-filters="sRGB">
<feFlood flood-opacity="0" result="BackgroundImageFix"/>
<feColorMatrix in="SourceAlpha" type="matrix" values="0 0 0 0 0 0 0 0 0 0 0 0 0 0 0 0 0 0 127 0" result="hardAlpha"/>
<feOffset dy="4"/>
<feGaussianBlur stdDeviation="2"/>
<feComposite in2="hardAlpha" operator="out"/>
<feColorMatrix type="matrix" values="0 0 0 0 0 0 0 0 0 0 0 0 0 0 0 0 0 0 0.25 0"/>
<feBlend mode="normal" in2="BackgroundImageFix" result="effect1_dropShadow_76_29"/>
<feBlend mode="normal" in="SourceGraphic" in2="effect1_dropShadow_76_29" result="shape"/>
</filter>
</defs>
</svg>
