<svg width="51" height="51" viewBox="0 0 51 51" fill="none" xmlns="http://www.w3.org/2000/svg">
<path d="M47.7688 25.2075C47.7688 37.1898 37.8248 46.9145 25.5476 46.9145C13.2704 46.9145 3.32642 37.1898 3.32642 25.2075C3.32642 13.2144 13.2704 3.50049 25.5476 3.50049C37.8248 3.50049 47.7688 13.2144 47.7688 25.2075Z" fill="#283544"/>
<path d="M35.9632 19.7146C35.8419 19.7837 32.9553 21.242 32.9553 24.4754C33.0914 28.1628 36.5981 29.456 36.6582 29.456C36.5981 29.5251 36.1288 31.2176 34.7387 32.9918C33.6356 34.5201 32.4111 36.0609 30.5518 36.0609C28.7832 36.0609 28.1483 35.0424 26.1075 35.0424C23.916 35.0424 23.2959 36.0609 21.6179 36.0609C19.7586 36.0609 18.4435 34.4375 17.2802 32.9236C15.7688 30.9421 14.4843 27.8326 14.4389 24.8469C14.4084 23.2648 14.7416 21.7096 15.5875 20.3886C16.7813 18.5444 18.9128 17.2925 21.2404 17.2512C23.0238 17.1965 24.611 18.3658 25.6994 18.3658C26.7424 18.3658 28.6925 17.2512 30.8988 17.2512C31.8512 17.2521 34.3907 17.5133 35.9632 19.7146ZM25.5486 16.9353C25.2311 15.4905 26.1075 14.0457 26.9238 13.124C27.9669 12.0094 29.6142 11.2529 31.0349 11.2529C31.1256 12.6978 30.5508 14.1148 29.5235 15.1468C28.6018 16.2614 27.0145 17.1005 25.5486 16.9353Z" fill="white"/>
</svg>
