<svg width="52" height="51" viewBox="0 0 52 51" fill="none" xmlns="http://www.w3.org/2000/svg">
<path d="M47.9422 25.6893C47.9422 23.9045 47.7909 22.6021 47.4636 21.2515H26.1746V29.3071H38.6707C38.4189 31.309 37.0584 34.3239 34.0351 36.3498L33.9927 36.6195L40.7239 41.6115L41.1902 41.6561C45.4731 37.8693 47.9422 32.2978 47.9422 25.6893Z" fill="#4285F4"/>
<path d="M26.1731 46.9145C32.2951 46.9145 37.4346 44.9849 41.1887 41.6565L34.0335 36.3502C32.1188 37.6285 29.549 38.5209 26.1731 38.5209C20.1769 38.5209 15.0878 34.7343 13.2737 29.5005L13.0077 29.5221L6.00859 34.7077L5.91705 34.9513C9.64572 42.0423 17.3047 46.9145 26.1731 46.9145Z" fill="#34A853"/>
<path d="M13.275 29.5003C12.7963 28.1497 12.5193 26.7024 12.5193 25.2071C12.5193 23.7117 12.7963 22.2646 13.2498 20.914L13.2372 20.6263L6.15026 15.3574L5.91839 15.463C4.38162 18.4055 3.49982 21.7099 3.49982 25.2071C3.49982 28.7044 4.38162 32.0086 5.91839 34.9511L13.275 29.5003Z" fill="#FBBC05"/>
<path d="M26.1732 11.8938C30.4309 11.8938 33.303 13.6545 34.9407 15.1258L41.34 9.14431C37.4098 5.64708 32.2953 3.50049 26.1732 3.50049C17.3048 3.50049 9.64575 8.37247 5.91705 15.4634L13.2485 20.9143C15.0879 15.6805 20.177 11.8938 26.1732 11.8938Z" fill="#EB4335"/>
</svg>
